<svg id="Layer_1" data-name="Layer 1" xmlns="http://www.w3.org/2000/svg" viewBox="0 0 1180 799"><defs><style>.cls-1{fill:#fff;}.cls-2,.cls-3,.cls-4,.cls-5,.cls-9{fill:none;}.cls-2,.cls-3,.cls-4,.cls-5,.cls-6,.cls-7,.cls-8,.cls-9{stroke:#000;stroke-miterlimit:10;}.cls-3{stroke-width:11px;}.cls-4{stroke-width:5px;}.cls-5,.cls-6,.cls-8{stroke-width:3px;}.cls-7{font-size:55px;font-family:Cadogan;}.cls-8{fill:#7ac943;}.cls-9{stroke-width:4px;}</style></defs><title>boomboxTRC</title><rect class="cls-1" x="5" y="187" width="1170" height="607" rx="152.31"/><path d="M1022.69,192A147.31,147.31,0,0,1,1170,339.31V641.69A147.32,147.32,0,0,1,1022.69,789H157.31A147.31,147.31,0,0,1,10,641.69V339.31A147.29,147.29,0,0,1,157.31,192h865.38m0-10H157.31A157.31,157.31,0,0,0,0,339.31V641.69A157.31,157.31,0,0,0,157.31,799h865.38A157.31,157.31,0,0,0,1180,641.69V339.31A157.31,157.31,0,0,0,1022.69,182Z"/><rect class="cls-1" x="381" y="520.52" width="421" height="236.8" rx="35.15"/><path d="M766.85,522.52A33.19,33.19,0,0,1,800,555.68V722.17a33.19,33.19,0,0,1-33.15,33.15H416.15A33.19,33.19,0,0,1,383,722.17V555.68a33.19,33.19,0,0,1,33.15-33.16h350.7m0-4H416.15A37.16,37.16,0,0,0,379,555.68V722.17a37.15,37.15,0,0,0,37.15,37.15h350.7A37.15,37.15,0,0,0,804,722.17V555.68a37.16,37.16,0,0,0-37.15-37.16Z"/><circle class="cls-1" cx="200" cy="429.5" r="161"/><path d="M200,271A158.49,158.49,0,1,1,87.92,317.42,157.5,157.5,0,0,1,200,271m0-5A163.5,163.5,0,1,0,363.5,429.5,163.5,163.5,0,0,0,200,266Z"/><circle class="cls-1" cx="983" cy="429.5" r="161"/><path d="M983,271a158.49,158.49,0,1,1-112.08,46.42A157.5,157.5,0,0,1,983,271m0-5a163.5,163.5,0,1,0,163.5,163.5A163.5,163.5,0,0,0,983,266Z"/><circle class="cls-1" cx="486" cy="639" r="54.5"/><path d="M486,586a53,53,0,1,1-53,53,53.07,53.07,0,0,1,53-53m0-3a56,56,0,1,0,56,56,56,56,0,0,0-56-56Z"/><circle class="cls-1" cx="698" cy="639" r="54.5"/><path d="M698,586a53,53,0,1,1-53,53,53.07,53.07,0,0,1,53-53m0-3a56,56,0,1,0,56,56,56,56,0,0,0-56-56Z"/><line class="cls-2" x1="378.5" y1="555.5" x2="803.5" y2="555.5"/><rect class="cls-3" x="320.5" y="5.5" width="542" height="177" rx="58.88"/><rect class="cls-3" x="369.5" y="49.5" width="443" height="133" rx="58.7"/><line class="cls-2" x1="485.5" y1="583.5" x2="697.5" y2="583.5"/><rect class="cls-4" x="431.5" y="365.5" width="321" height="120" rx="35.11"/><line class="cls-4" x1="541.5" y1="366" x2="541.5" y2="486"/><line class="cls-4" x1="641.5" y1="365" x2="641.5" y2="485"/><circle class="cls-4" cx="215.5" cy="676.5" r="41"/><circle class="cls-4" cx="967.5" cy="676.5" r="41"/><circle class="cls-5" cx="698" cy="426" r="23.5"/><polygon class="cls-6" points="617.71 425.69 575.82 449.87 575.82 401.5 617.71 425.69"/><circle class="cls-5" cx="200" cy="430" r="116.5"/><circle class="cls-5" cx="983" cy="430" r="116.5"/><text class="cls-7" transform="translate(320.21 286.82)">MoveSynth</text><circle class="cls-8" cx="489" cy="427" r="19"/><line class="cls-9" x1="489" y1="409" x2="489" y2="389"/><line class="cls-9" x1="470.5" y1="426.5" x2="451.5" y2="426.5"/><line class="cls-9" x1="488.5" y1="445.5" x2="488.5" y2="463.5"/><line class="cls-9" x1="507.5" y1="426.5" x2="526.5" y2="426.5"/></svg>